<mxfile host="Electron" modified="2023-10-13T03:11:53.575Z" agent="Mozilla/5.0 (X11; Linux x86_64) AppleWebKit/537.36 (KHTML, like Gecko) draw.io/22.0.2 Chrome/114.0.5735.289 Electron/25.8.4 Safari/537.36" etag="iqmh2GEcI83ARIIYKXUR" version="22.0.2" type="device">
  <diagram id="C5RBs43oDa-KdzZeNtuy" name="Page-1">
    <mxGraphModel dx="583" dy="350" grid="1" gridSize="10" guides="1" tooltips="1" connect="1" arrows="1" fold="1" page="1" pageScale="1" pageWidth="827" pageHeight="1169" math="0" shadow="0">
      <root>
        <mxCell id="WIyWlLk6GJQsqaUBKTNV-0" />
        <mxCell id="WIyWlLk6GJQsqaUBKTNV-1" parent="WIyWlLk6GJQsqaUBKTNV-0" />
        <mxCell id="WIyWlLk6GJQsqaUBKTNV-2" value="" style="rounded=0;html=1;jettySize=auto;orthogonalLoop=1;fontSize=11;endArrow=block;endFill=0;endSize=8;strokeWidth=1;shadow=0;labelBackgroundColor=none;edgeStyle=orthogonalEdgeStyle;" parent="WIyWlLk6GJQsqaUBKTNV-1" source="WIyWlLk6GJQsqaUBKTNV-3" target="WIyWlLk6GJQsqaUBKTNV-6" edge="1">
          <mxGeometry relative="1" as="geometry" />
        </mxCell>
        <mxCell id="WIyWlLk6GJQsqaUBKTNV-3" value="engine_newPayloadV2 is called with an ExecutionPayload" style="rounded=1;whiteSpace=wrap;html=1;fontSize=12;glass=0;strokeWidth=1;shadow=0;" parent="WIyWlLk6GJQsqaUBKTNV-1" vertex="1">
          <mxGeometry x="160" y="80" width="120" height="40" as="geometry" />
        </mxCell>
        <mxCell id="WIyWlLk6GJQsqaUBKTNV-4" value="Yes" style="rounded=0;html=1;jettySize=auto;orthogonalLoop=1;fontSize=11;endArrow=block;endFill=0;endSize=8;strokeWidth=1;shadow=0;labelBackgroundColor=none;edgeStyle=orthogonalEdgeStyle;" parent="WIyWlLk6GJQsqaUBKTNV-1" source="WIyWlLk6GJQsqaUBKTNV-6" target="WIyWlLk6GJQsqaUBKTNV-10" edge="1">
          <mxGeometry y="20" relative="1" as="geometry">
            <mxPoint as="offset" />
          </mxGeometry>
        </mxCell>
        <mxCell id="WIyWlLk6GJQsqaUBKTNV-5" value="No" style="edgeStyle=orthogonalEdgeStyle;rounded=0;html=1;jettySize=auto;orthogonalLoop=1;fontSize=11;endArrow=block;endFill=0;endSize=8;strokeWidth=1;shadow=0;labelBackgroundColor=none;entryX=0;entryY=0.5;entryDx=0;entryDy=0;" parent="WIyWlLk6GJQsqaUBKTNV-1" source="WIyWlLk6GJQsqaUBKTNV-6" target="TtCGCrMldSAgcqoWj4-n-1" edge="1">
          <mxGeometry y="10" relative="1" as="geometry">
            <mxPoint as="offset" />
            <mxPoint x="320" y="210" as="targetPoint" />
          </mxGeometry>
        </mxCell>
        <mxCell id="WIyWlLk6GJQsqaUBKTNV-6" value="Is ExecutionPayload V1?" style="rhombus;whiteSpace=wrap;html=1;shadow=0;fontFamily=Helvetica;fontSize=12;align=center;strokeWidth=1;spacing=6;spacingTop=-4;" parent="WIyWlLk6GJQsqaUBKTNV-1" vertex="1">
          <mxGeometry x="170" y="170" width="100" height="80" as="geometry" />
        </mxCell>
        <mxCell id="WIyWlLk6GJQsqaUBKTNV-9" value="No" style="edgeStyle=orthogonalEdgeStyle;rounded=0;html=1;jettySize=auto;orthogonalLoop=1;fontSize=11;endArrow=block;endFill=0;endSize=8;strokeWidth=1;shadow=0;labelBackgroundColor=none;" parent="WIyWlLk6GJQsqaUBKTNV-1" source="WIyWlLk6GJQsqaUBKTNV-10" edge="1">
          <mxGeometry x="-0.208" y="10" relative="1" as="geometry">
            <mxPoint as="offset" />
            <mxPoint x="320" y="330" as="targetPoint" />
          </mxGeometry>
        </mxCell>
        <mxCell id="TtCGCrMldSAgcqoWj4-n-6" style="edgeStyle=orthogonalEdgeStyle;rounded=0;orthogonalLoop=1;jettySize=auto;html=1;entryX=0.5;entryY=0;entryDx=0;entryDy=0;" edge="1" parent="WIyWlLk6GJQsqaUBKTNV-1" source="WIyWlLk6GJQsqaUBKTNV-10">
          <mxGeometry relative="1" as="geometry">
            <mxPoint x="320" y="430" as="targetPoint" />
            <Array as="points">
              <mxPoint x="220" y="400" />
              <mxPoint x="320" y="400" />
            </Array>
          </mxGeometry>
        </mxCell>
        <mxCell id="TtCGCrMldSAgcqoWj4-n-9" value="Yes" style="edgeLabel;html=1;align=center;verticalAlign=middle;resizable=0;points=[];" vertex="1" connectable="0" parent="TtCGCrMldSAgcqoWj4-n-6">
          <mxGeometry x="0.051" y="-1" relative="1" as="geometry">
            <mxPoint as="offset" />
          </mxGeometry>
        </mxCell>
        <mxCell id="WIyWlLk6GJQsqaUBKTNV-10" value="timestamp value is lower than the Shanghai timestamp" style="rhombus;whiteSpace=wrap;html=1;shadow=0;fontFamily=Helvetica;fontSize=12;align=center;strokeWidth=1;spacing=6;spacingTop=-4;" parent="WIyWlLk6GJQsqaUBKTNV-1" vertex="1">
          <mxGeometry x="170" y="290" width="100" height="80" as="geometry" />
        </mxCell>
        <mxCell id="TtCGCrMldSAgcqoWj4-n-3" value="" style="edgeStyle=orthogonalEdgeStyle;rounded=0;orthogonalLoop=1;jettySize=auto;html=1;" edge="1" parent="WIyWlLk6GJQsqaUBKTNV-1" source="TtCGCrMldSAgcqoWj4-n-1" target="TtCGCrMldSAgcqoWj4-n-2">
          <mxGeometry relative="1" as="geometry" />
        </mxCell>
        <mxCell id="TtCGCrMldSAgcqoWj4-n-4" value="No" style="edgeLabel;html=1;align=center;verticalAlign=middle;resizable=0;points=[];" vertex="1" connectable="0" parent="TtCGCrMldSAgcqoWj4-n-3">
          <mxGeometry x="-0.3162" y="-1" relative="1" as="geometry">
            <mxPoint x="11" as="offset" />
          </mxGeometry>
        </mxCell>
        <mxCell id="TtCGCrMldSAgcqoWj4-n-7" style="edgeStyle=orthogonalEdgeStyle;rounded=0;orthogonalLoop=1;jettySize=auto;html=1;entryX=0.5;entryY=0;entryDx=0;entryDy=0;" edge="1" parent="WIyWlLk6GJQsqaUBKTNV-1" source="TtCGCrMldSAgcqoWj4-n-1">
          <mxGeometry relative="1" as="geometry">
            <mxPoint x="320" y="430" as="targetPoint" />
            <Array as="points">
              <mxPoint x="480" y="210" />
              <mxPoint x="480" y="400" />
              <mxPoint x="320" y="400" />
            </Array>
          </mxGeometry>
        </mxCell>
        <mxCell id="TtCGCrMldSAgcqoWj4-n-8" value="Yes" style="edgeLabel;html=1;align=center;verticalAlign=middle;resizable=0;points=[];" vertex="1" connectable="0" parent="TtCGCrMldSAgcqoWj4-n-7">
          <mxGeometry x="-0.2949" y="3" relative="1" as="geometry">
            <mxPoint x="-103" y="88" as="offset" />
          </mxGeometry>
        </mxCell>
        <mxCell id="TtCGCrMldSAgcqoWj4-n-1" value="timestamp value is greater or equal to the Shanghai timestamp" style="rhombus;whiteSpace=wrap;html=1;shadow=0;fontFamily=Helvetica;fontSize=12;align=center;strokeWidth=1;spacing=6;spacingTop=-4;" vertex="1" parent="WIyWlLk6GJQsqaUBKTNV-1">
          <mxGeometry x="330" y="170" width="100" height="80" as="geometry" />
        </mxCell>
        <mxCell id="TtCGCrMldSAgcqoWj4-n-2" value="return: -32602: Invalid params" style="rounded=1;whiteSpace=wrap;html=1;fontSize=12;glass=0;strokeWidth=1;shadow=0;" vertex="1" parent="WIyWlLk6GJQsqaUBKTNV-1">
          <mxGeometry x="320" y="310" width="120" height="40" as="geometry" />
        </mxCell>
        <mxCell id="TtCGCrMldSAgcqoWj4-n-12" value="no" style="edgeStyle=orthogonalEdgeStyle;rounded=0;orthogonalLoop=1;jettySize=auto;html=1;" edge="1" parent="WIyWlLk6GJQsqaUBKTNV-1" source="TtCGCrMldSAgcqoWj4-n-10" target="TtCGCrMldSAgcqoWj4-n-11">
          <mxGeometry relative="1" as="geometry" />
        </mxCell>
        <mxCell id="TtCGCrMldSAgcqoWj4-n-14" value="yes" style="edgeStyle=orthogonalEdgeStyle;rounded=0;orthogonalLoop=1;jettySize=auto;html=1;" edge="1" parent="WIyWlLk6GJQsqaUBKTNV-1" source="TtCGCrMldSAgcqoWj4-n-10" target="TtCGCrMldSAgcqoWj4-n-13">
          <mxGeometry relative="1" as="geometry" />
        </mxCell>
        <mxCell id="TtCGCrMldSAgcqoWj4-n-10" value="is&amp;nbsp;blockHash value equivalent to Keccak256(RLP(ExecutionBlockHeader))" style="strokeWidth=2;html=1;shape=mxgraph.flowchart.decision;whiteSpace=wrap;" vertex="1" parent="WIyWlLk6GJQsqaUBKTNV-1">
          <mxGeometry x="270" y="430" width="100" height="100" as="geometry" />
        </mxCell>
        <mxCell id="TtCGCrMldSAgcqoWj4-n-11" value="return&amp;nbsp;{status: INVALID, latestValidHash: null, validationError: errorMessage | null}" style="rounded=1;whiteSpace=wrap;html=1;absoluteArcSize=1;arcSize=14;strokeWidth=2;" vertex="1" parent="WIyWlLk6GJQsqaUBKTNV-1">
          <mxGeometry x="480" y="460" width="100" height="40" as="geometry" />
        </mxCell>
        <mxCell id="TtCGCrMldSAgcqoWj4-n-16" value="yes" style="edgeStyle=orthogonalEdgeStyle;rounded=0;orthogonalLoop=1;jettySize=auto;html=1;" edge="1" parent="WIyWlLk6GJQsqaUBKTNV-1" source="TtCGCrMldSAgcqoWj4-n-13" target="TtCGCrMldSAgcqoWj4-n-15">
          <mxGeometry relative="1" as="geometry" />
        </mxCell>
        <mxCell id="TtCGCrMldSAgcqoWj4-n-21" value="no" style="edgeStyle=orthogonalEdgeStyle;rounded=0;orthogonalLoop=1;jettySize=auto;html=1;" edge="1" parent="WIyWlLk6GJQsqaUBKTNV-1" source="TtCGCrMldSAgcqoWj4-n-13" target="TtCGCrMldSAgcqoWj4-n-20">
          <mxGeometry relative="1" as="geometry" />
        </mxCell>
        <mxCell id="TtCGCrMldSAgcqoWj4-n-13" value="is requisite data for payload validation missing" style="strokeWidth=2;html=1;shape=mxgraph.flowchart.decision;whiteSpace=wrap;" vertex="1" parent="WIyWlLk6GJQsqaUBKTNV-1">
          <mxGeometry x="270" y="600" width="100" height="100" as="geometry" />
        </mxCell>
        <mxCell id="TtCGCrMldSAgcqoWj4-n-29" value="" style="edgeStyle=orthogonalEdgeStyle;rounded=0;orthogonalLoop=1;jettySize=auto;html=1;" edge="1" parent="WIyWlLk6GJQsqaUBKTNV-1" source="TtCGCrMldSAgcqoWj4-n-15" target="TtCGCrMldSAgcqoWj4-n-28">
          <mxGeometry relative="1" as="geometry" />
        </mxCell>
        <mxCell id="TtCGCrMldSAgcqoWj4-n-15" value="Start sync process" style="rounded=1;whiteSpace=wrap;html=1;absoluteArcSize=1;arcSize=14;strokeWidth=2;" vertex="1" parent="WIyWlLk6GJQsqaUBKTNV-1">
          <mxGeometry x="480" y="600" width="100" height="100" as="geometry" />
        </mxCell>
        <mxCell id="TtCGCrMldSAgcqoWj4-n-31" value="" style="edgeStyle=orthogonalEdgeStyle;rounded=0;orthogonalLoop=1;jettySize=auto;html=1;" edge="1" parent="WIyWlLk6GJQsqaUBKTNV-1" source="TtCGCrMldSAgcqoWj4-n-19" target="TtCGCrMldSAgcqoWj4-n-30">
          <mxGeometry relative="1" as="geometry" />
        </mxCell>
        <mxCell id="TtCGCrMldSAgcqoWj4-n-19" value="Validate the payload" style="rounded=1;whiteSpace=wrap;html=1;absoluteArcSize=1;arcSize=14;strokeWidth=2;" vertex="1" parent="WIyWlLk6GJQsqaUBKTNV-1">
          <mxGeometry x="270" y="920" width="100" height="100" as="geometry" />
        </mxCell>
        <mxCell id="TtCGCrMldSAgcqoWj4-n-22" value="yes" style="edgeStyle=orthogonalEdgeStyle;rounded=0;orthogonalLoop=1;jettySize=auto;html=1;" edge="1" parent="WIyWlLk6GJQsqaUBKTNV-1" source="TtCGCrMldSAgcqoWj4-n-20" target="TtCGCrMldSAgcqoWj4-n-19">
          <mxGeometry relative="1" as="geometry" />
        </mxCell>
        <mxCell id="TtCGCrMldSAgcqoWj4-n-24" value="no" style="edgeStyle=orthogonalEdgeStyle;rounded=0;orthogonalLoop=1;jettySize=auto;html=1;" edge="1" parent="WIyWlLk6GJQsqaUBKTNV-1" source="TtCGCrMldSAgcqoWj4-n-20">
          <mxGeometry relative="1" as="geometry">
            <mxPoint x="440" y="1080" as="targetPoint" />
          </mxGeometry>
        </mxCell>
        <mxCell id="TtCGCrMldSAgcqoWj4-n-20" value="the payload extends the canonical chain" style="strokeWidth=2;html=1;shape=mxgraph.flowchart.decision;whiteSpace=wrap;" vertex="1" parent="WIyWlLk6GJQsqaUBKTNV-1">
          <mxGeometry x="270" y="760" width="100" height="100" as="geometry" />
        </mxCell>
        <mxCell id="TtCGCrMldSAgcqoWj4-n-28" value="return&amp;nbsp;{status: SYNCING, latestValidHash: null, validationError: null}" style="rounded=1;whiteSpace=wrap;html=1;absoluteArcSize=1;arcSize=14;strokeWidth=2;" vertex="1" parent="WIyWlLk6GJQsqaUBKTNV-1">
          <mxGeometry x="660" y="600" width="100" height="100" as="geometry" />
        </mxCell>
        <mxCell id="TtCGCrMldSAgcqoWj4-n-33" value="yes" style="edgeStyle=orthogonalEdgeStyle;rounded=0;orthogonalLoop=1;jettySize=auto;html=1;" edge="1" parent="WIyWlLk6GJQsqaUBKTNV-1" source="TtCGCrMldSAgcqoWj4-n-30" target="TtCGCrMldSAgcqoWj4-n-32">
          <mxGeometry relative="1" as="geometry" />
        </mxCell>
        <mxCell id="TtCGCrMldSAgcqoWj4-n-35" value="no" style="edgeStyle=orthogonalEdgeStyle;rounded=0;orthogonalLoop=1;jettySize=auto;html=1;entryX=0;entryY=0.5;entryDx=0;entryDy=0;entryPerimeter=0;" edge="1" parent="WIyWlLk6GJQsqaUBKTNV-1" source="TtCGCrMldSAgcqoWj4-n-30" target="TtCGCrMldSAgcqoWj4-n-36">
          <mxGeometry relative="1" as="geometry">
            <mxPoint x="560" y="1130" as="targetPoint" />
          </mxGeometry>
        </mxCell>
        <mxCell id="TtCGCrMldSAgcqoWj4-n-30" value="he payload has been fully validated while processing the call" style="strokeWidth=2;html=1;shape=mxgraph.flowchart.decision;whiteSpace=wrap;" vertex="1" parent="WIyWlLk6GJQsqaUBKTNV-1">
          <mxGeometry x="390" y="1080" width="100" height="100" as="geometry" />
        </mxCell>
        <mxCell id="TtCGCrMldSAgcqoWj4-n-32" value="return the payload status obtained from the Payload validation process" style="rounded=1;whiteSpace=wrap;html=1;absoluteArcSize=1;arcSize=14;strokeWidth=2;" vertex="1" parent="WIyWlLk6GJQsqaUBKTNV-1">
          <mxGeometry x="390" y="1240" width="100" height="100" as="geometry" />
        </mxCell>
        <mxCell id="TtCGCrMldSAgcqoWj4-n-38" value="yes" style="edgeStyle=orthogonalEdgeStyle;rounded=0;orthogonalLoop=1;jettySize=auto;html=1;" edge="1" parent="WIyWlLk6GJQsqaUBKTNV-1" source="TtCGCrMldSAgcqoWj4-n-36" target="TtCGCrMldSAgcqoWj4-n-37">
          <mxGeometry relative="1" as="geometry" />
        </mxCell>
        <mxCell id="TtCGCrMldSAgcqoWj4-n-40" value="no" style="edgeStyle=orthogonalEdgeStyle;rounded=0;orthogonalLoop=1;jettySize=auto;html=1;" edge="1" parent="WIyWlLk6GJQsqaUBKTNV-1" source="TtCGCrMldSAgcqoWj4-n-36" target="TtCGCrMldSAgcqoWj4-n-39">
          <mxGeometry relative="1" as="geometry" />
        </mxCell>
        <mxCell id="TtCGCrMldSAgcqoWj4-n-36" value="ancestors of a payload are known and comprise a well-formed chain." style="strokeWidth=2;html=1;shape=mxgraph.flowchart.decision;whiteSpace=wrap;" vertex="1" parent="WIyWlLk6GJQsqaUBKTNV-1">
          <mxGeometry x="560" y="1080" width="100" height="100" as="geometry" />
        </mxCell>
        <mxCell id="TtCGCrMldSAgcqoWj4-n-37" value="{status: ACCEPTED, latestValidHash: null, validationError: null}" style="rounded=1;whiteSpace=wrap;html=1;absoluteArcSize=1;arcSize=14;strokeWidth=2;" vertex="1" parent="WIyWlLk6GJQsqaUBKTNV-1">
          <mxGeometry x="560" y="1240" width="100" height="100" as="geometry" />
        </mxCell>
        <mxCell id="TtCGCrMldSAgcqoWj4-n-39" value="error?" style="rounded=1;whiteSpace=wrap;html=1;absoluteArcSize=1;arcSize=14;strokeWidth=2;" vertex="1" parent="WIyWlLk6GJQsqaUBKTNV-1">
          <mxGeometry x="700" y="1080" width="100" height="100" as="geometry" />
        </mxCell>
      </root>
    </mxGraphModel>
  </diagram>
</mxfile>
